<svg width="42" height="42" viewBox="0 0 42 42" fill="none" xmlns="http://www.w3.org/2000/svg" xmlns:xlink="http://www.w3.org/1999/xlink">
<path d="M12.5,0C12.898,0 13.279,0.158 13.561,0.439C13.842,0.721 14,1.102 14,1.5L14,2.5C14,2.898 13.842,3.279 13.561,3.561C13.279,3.842 12.898,4 12.5,4C12.102,4 11.721,3.842 11.439,3.561C11.158,3.279 11,2.898 11,2.5L11,1.5C11,1.102 11.158,0.721 11.439,0.439C11.721,0.158 12.102,0 12.5,0ZM3.66,3.66C3.799,3.52 3.965,3.409 4.147,3.334C4.329,3.258 4.525,3.219 4.722,3.219C4.919,3.219 5.115,3.258 5.297,3.334C5.479,3.409 5.645,3.52 5.784,3.66L6.216,4.094C6.489,4.377 6.64,4.756 6.637,5.149C6.633,5.543 6.475,5.919 6.197,6.197C5.918,6.475 5.542,6.632 5.149,6.636C4.756,6.639 4.377,6.487 4.094,6.214L3.662,5.782C3.381,5.501 3.223,5.12 3.223,4.722C3.223,4.324 3.381,3.943 3.662,3.662L3.66,3.66ZM21.338,3.66C21.477,3.799 21.588,3.965 21.663,4.147C21.739,4.329 21.778,4.524 21.778,4.721C21.778,4.918 21.739,5.113 21.663,5.295C21.588,5.477 21.477,5.643 21.338,5.782L20.906,6.214C20.769,6.361 20.603,6.48 20.419,6.562C20.235,6.644 20.036,6.688 19.835,6.691C19.634,6.695 19.434,6.658 19.247,6.582C19.06,6.507 18.89,6.395 18.748,6.252C18.605,6.11 18.493,5.94 18.418,5.753C18.342,5.566 18.305,5.366 18.309,5.165C18.312,4.964 18.356,4.765 18.438,4.581C18.52,4.397 18.639,4.231 18.786,4.094L19.216,3.662C19.355,3.523 19.521,3.412 19.703,3.337C19.885,3.261 20.08,3.222 20.277,3.222C20.474,3.222 20.669,3.261 20.851,3.337C21.033,3.412 21.199,3.523 21.338,3.662L21.338,3.66ZM0,12.5C0,12.102 0.158,11.721 0.439,11.439C0.721,11.158 1.102,11 1.5,11L2.5,11C2.898,11 3.279,11.158 3.561,11.439C3.842,11.721 4,12.102 4,12.5C4,12.898 3.842,13.279 3.561,13.561C3.279,13.842 2.898,14 2.5,14L1.5,14C1.102,14 0.721,13.842 0.439,13.561C0.158,13.279 0,12.898 0,12.5ZM6.216,18.786C6.497,19.067 6.655,19.448 6.655,19.846C6.655,20.244 6.497,20.625 6.216,20.906L5.784,21.338C5.501,21.611 5.122,21.763 4.729,21.76C4.336,21.756 3.96,21.599 3.681,21.321C3.403,21.043 3.245,20.667 3.241,20.273C3.238,19.88 3.389,19.501 3.662,19.218L4.094,18.786C4.375,18.505 4.757,18.347 5.154,18.347C5.552,18.347 5.935,18.505 6.216,18.786Z" clip-rule="evenodd" fill-rule="evenodd" fill="#52A77A"/>
<path d="M30.072,41.5C36.384,41.5 41.5,36.444 41.5,30.206C41.5,25.262 38.286,21.06 33.81,19.53C33.174,13.888 28.33,9.5 22.452,9.5C16.14,9.5 11.024,14.556 11.024,20.794C11.024,22.174 11.274,23.494 11.732,24.718C11.185,24.612 10.629,24.558 10.072,24.558C5.338,24.56 1.5,28.352 1.5,33.03C1.5,37.708 5.338,41.5 10.072,41.5L30.072,41.5ZM17.12,7.508C15.686,6.64 13.989,6.316 12.336,6.593C10.683,6.871 9.185,7.732 8.114,9.021C7.042,10.309 6.468,11.939 6.497,13.615C6.525,15.291 7.153,16.9 8.268,18.152C9.188,13.278 12.596,9.292 17.12,7.508Z" fill="#52A77A"/>
</svg>
