<svg width="38" height="36" viewBox="0 0 38 36" fill="none" xmlns="http://www.w3.org/2000/svg" xmlns:xlink="http://www.w3.org/1999/xlink">
<g opacity="0.8">
<path d="M24,18C24,21.314 21.314,24 18,24L18,28C23.523,28 28,23.523 28,18L24,18ZM18,24C14.686,24 12,21.314 12,18L8,18C8,23.523 12.477,28 18,28L18,24ZM12,18C12,14.686 14.686,12 18,12L18,8C12.477,8 8,12.477 8,18L12,18ZM18,12C21.314,12 24,14.686 24,18L28,18C28,12.477 23.523,8 18,8L18,12Z" fill="#52A77A"/>
<path d="M18,0C16.895,0 16,0.895 16,2C16,3.105 16.895,4 18,4L18,0ZM18.02,4C19.125,4 20.02,3.105 20.02,2C20.02,0.895 19.125,0 18.02,0L18.02,4ZM34,16C32.895,16 32,16.895 32,18C32,19.105 32.895,20 34,20L34,16ZM34.02,20C35.125,20 36.02,19.105 36.02,18C36.02,16.895 35.125,16 34.02,16L34.02,20ZM18,32C16.895,32 16,32.895 16,34C16,35.105 16.895,36 18,36L18,32ZM18.02,36C19.125,36 20.02,35.105 20.02,34C20.02,32.895 19.125,32 18.02,32L18.02,36ZM2,16C0.895,16 0,16.895 0,18C0,19.105 0.895,20 2,20L2,16ZM2.02,20C3.125,20 4.02,19.105 4.02,18C4.02,16.895 3.125,16 2.02,16L2.02,20ZM29.314,4.686C28.209,4.686 27.314,5.581 27.314,6.686C27.314,7.791 28.209,8.686 29.314,8.686L29.314,4.686ZM29.334,8.686C30.439,8.686 31.334,7.791 31.334,6.686C31.334,5.581 30.439,4.686 29.334,4.686L29.334,8.686ZM29.314,27.314C28.209,27.314 27.314,28.209 27.314,29.314C27.314,30.419 28.209,31.314 29.314,31.314L29.314,27.314ZM29.334,31.314C30.439,31.314 31.334,30.419 31.334,29.314C31.334,28.209 30.439,27.314 29.334,27.314L29.334,31.314ZM6.686,27.314C5.581,27.314 4.686,28.209 4.686,29.314C4.686,30.419 5.581,31.314 6.686,31.314L6.686,27.314ZM6.706,31.314C7.811,31.314 8.706,30.419 8.706,29.314C8.706,28.209 7.811,27.314 6.706,27.314L6.706,31.314ZM6.686,4.686C5.581,4.686 4.686,5.581 4.686,6.686C4.686,7.791 5.581,8.686 6.686,8.686L6.686,4.686ZM6.706,8.686C7.811,8.686 8.706,7.791 8.706,6.686C8.706,5.581 7.811,4.686 6.706,4.686L6.706,8.686ZM18,4L18.02,4L18.02,0L18,0L18,4ZM34,20L34.02,20L34.02,16L34,16L34,20ZM18,36L18.02,36L18.02,32L18,32L18,36ZM2,20L2.02,20L2.02,16L2,16L2,20ZM29.314,8.686L29.334,8.686L29.334,4.686L29.314,4.686L29.314,8.686ZM29.314,31.314L29.334,31.314L29.334,27.314L29.314,27.314L29.314,31.314ZM6.686,31.314L6.706,31.314L6.706,27.314L6.686,27.314L6.686,31.314ZM6.686,8.686L6.706,8.686L6.706,4.686L6.686,4.686L6.686,8.686Z" fill="#52A77A"/>
</g>
</svg>
