<svg width="50" height="36" viewBox="0 0 50 36" fill="none" xmlns="http://www.w3.org/2000/svg" xmlns:xlink="http://www.w3.org/1999/xlink">
<path d="M34.431,20.998C34.093,17.956 32.732,15.119 30.571,12.952C28.409,10.785 25.576,9.416 22.534,9.071C19.493,8.726 16.425,9.424 13.833,11.051C11.24,12.679 9.278,15.138 8.267,18.027C5.951,18.217 3.797,19.295 2.258,21.037C0.718,22.778 -0.088,25.047 0.008,27.37C0.103,29.692 1.094,31.887 2.771,33.496C4.449,35.104 6.684,36.002 9.008,36L34.512,36C36.501,35.989 38.405,35.189 39.804,33.774C41.203,32.36 41.983,30.448 41.973,28.458C41.962,26.469 41.161,24.565 39.747,23.166C38.333,21.767 36.42,20.987 34.431,20.998Z" fill="#52A77A"/>
<path d="M43.645,23.314C42.935,22.064 41.976,20.973 40.828,20.108C39.68,19.243 38.367,18.623 36.969,18.285C35.904,14.252 33.351,10.771 29.823,8.543C26.296,6.316 22.056,5.506 17.955,6.278C19.106,4.159 20.868,2.435 23.012,1.332C25.156,0.228 27.582,-0.205 29.975,0.09C32.368,0.385 34.617,1.393 36.429,2.983C38.241,4.574 39.532,6.673 40.135,9.008C41.877,8.919 43.595,9.44 44.994,10.481C46.394,11.522 47.387,13.018 47.802,14.712C48.218,16.406 48.03,18.192 47.271,19.762C46.513,21.333 45.231,22.587 43.645,23.314Z" fill="#52A77A"/>
</svg>
