<svg width="38" height="30" viewBox="0 0 38 30" fill="none" xmlns="http://www.w3.org/2000/svg" xmlns:xlink="http://www.w3.org/1999/xlink">
<path d="M5.7,29.11C4.188,29.11 2.738,28.526 1.669,27.488C0.601,26.449 0,25.04 0,23.571L0,5.109C0,3.64 0.601,2.231 1.669,1.192C2.738,0.154 4.188,-0.43 5.7,-0.43L32.3,-0.43C33.812,-0.43 35.262,0.154 36.331,1.192C37.399,2.231 38,3.64 38,5.109L38,23.571C38,25.04 37.399,26.449 36.331,27.488C35.262,28.526 33.812,29.11 32.3,29.11L5.7,29.11ZM10.688,7.361C10.494,7.201 10.269,7.079 10.027,7.005C9.784,6.93 9.528,6.904 9.275,6.927C9.022,6.951 8.776,7.023 8.552,7.14C8.328,7.258 8.13,7.418 7.971,7.611C7.812,7.804 7.694,8.026 7.625,8.264C7.556,8.502 7.537,8.751 7.569,8.996C7.601,9.242 7.683,9.478 7.811,9.692C7.938,9.906 8.109,10.093 8.313,10.241L15.438,15.782C16.448,16.568 17.705,16.997 19,16.997C20.295,16.997 21.552,16.568 22.562,15.782L29.688,10.243C29.882,10.092 30.045,9.904 30.165,9.692C30.285,9.479 30.361,9.246 30.389,9.005C30.416,8.764 30.395,8.52 30.325,8.287C30.256,8.054 30.14,7.837 29.984,7.647C29.828,7.458 29.635,7.3 29.417,7.183C29.198,7.067 28.958,6.993 28.71,6.966C28.462,6.939 28.21,6.96 27.971,7.028C27.731,7.095 27.507,7.208 27.312,7.359L20.188,12.898C19.851,13.16 19.432,13.303 19,13.303C18.568,13.303 18.149,13.16 17.813,12.898L10.688,7.359L10.688,7.361Z" clip-rule="evenodd" fill-rule="evenodd" fill="#545454" fill-opacity="0.6"/>
</svg>
