<svg width="68" height="68" viewBox="0 0 68 68" fill="none" xmlns="http://www.w3.org/2000/svg" xmlns:xlink="http://www.w3.org/1999/xlink">
<path d="M30.995,1.244C31.792,0.448 32.873,0 34,0C35.127,0 36.208,0.448 37.005,1.244L66.756,30.995C67.35,31.589 67.754,32.346 67.918,33.171C68.082,33.995 67.998,34.849 67.677,35.626C67.355,36.402 66.81,37.066 66.112,37.533C65.413,38 64.591,38.249 63.751,38.25L59.501,38.25L59.501,63.75C59.501,64.877 59.053,65.958 58.256,66.755C57.459,67.552 56.378,68 55.251,68L46.75,68C45.623,68 44.542,67.552 43.745,66.755C42.948,65.958 42.5,64.877 42.5,63.75L42.5,51C42.5,49.873 42.052,48.792 41.255,47.995C40.458,47.197 39.377,46.75 38.25,46.75L29.75,46.75C28.623,46.75 27.542,47.197 26.745,47.995C25.948,48.792 25.5,49.873 25.5,51L25.5,63.75C25.5,64.877 25.052,65.958 24.255,66.755C23.458,67.552 22.377,68 21.25,68L12.749,68C11.622,68 10.541,67.552 9.744,66.755C8.947,65.958 8.499,64.877 8.499,63.75L8.499,38.25L4.249,38.25C3.409,38.249 2.587,38 1.888,37.533C1.19,37.066 0.645,36.402 0.323,35.626C0.002,34.849 -0.082,33.995 0.082,33.171C0.246,32.346 0.65,31.589 1.244,30.995L30.995,1.244Z" clip-rule="evenodd" fill-rule="evenodd" fill="#CDCDD2"/>
</svg>
