<svg width="36" height="36" viewBox="0 0 36 36" fill="none" xmlns="http://www.w3.org/2000/svg" xmlns:xlink="http://www.w3.org/1999/xlink">
<g opacity="0.7">
<path d="M13.57,6L14.984,4.586C14.203,3.805 12.937,3.805 12.156,4.586L13.57,6ZM30,22.43L31.414,23.844C31.789,23.469 32,22.96 32,22.43C32,21.9 31.789,21.391 31.414,21.016L30,22.43ZM25.892,26.538L24.478,25.124C24.469,25.133 24.459,25.142 24.45,25.152L25.892,26.538ZM9.462,10.108L10.848,11.55C10.858,11.541 10.867,11.531 10.876,11.522L9.462,10.108ZM0.586,32.586C-0.195,33.367 -0.195,34.633 0.586,35.414C1.367,36.195 2.633,36.195 3.414,35.414L0.586,32.586ZM10.414,28.414C11.195,27.633 11.195,26.367 10.414,25.586C9.633,24.805 8.367,24.805 7.586,25.586L10.414,28.414ZM25.414,3.414C26.195,2.633 26.195,1.367 25.414,0.586C24.633,-0.195 23.367,-0.195 22.586,0.586L25.414,3.414ZM15.586,7.586C14.805,8.367 14.805,9.633 15.586,10.414C16.367,11.195 17.633,11.195 18.414,10.414L15.586,7.586ZM35.414,13.414C36.195,12.633 36.195,11.367 35.414,10.586C34.633,9.805 33.367,9.805 32.586,10.586L35.414,13.414ZM25.586,17.586C24.805,18.367 24.805,19.633 25.586,20.414C26.367,21.195 27.633,21.195 28.414,20.414L25.586,17.586ZM12.156,7.414L28.586,23.844L31.414,21.016L14.984,4.586L12.156,7.414ZM28.586,21.016L24.478,25.124L27.306,27.952L31.414,23.844L28.586,21.016ZM24.45,25.152C23.564,26.074 22.502,26.81 21.328,27.317L22.913,30.989C24.575,30.272 26.078,29.23 27.334,27.924L24.45,25.152ZM21.328,27.317C20.153,27.824 18.889,28.091 17.61,28.104L17.649,32.104C19.46,32.086 21.25,31.707 22.913,30.989L21.328,27.317ZM17.61,28.104C16.331,28.116 15.062,27.874 13.878,27.39L12.365,31.093C14.042,31.778 15.838,32.121 17.649,32.104L17.61,28.104ZM13.878,27.39C12.694,26.906 11.618,26.191 10.713,25.287L7.885,28.115C9.166,29.396 10.689,30.408 12.365,31.093L13.878,27.39ZM10.713,25.287C9.809,24.382 9.094,23.306 8.61,22.122L4.907,23.635C5.592,25.311 6.604,26.834 7.885,28.115L10.713,25.287ZM8.61,22.122C8.126,20.938 7.884,19.669 7.896,18.39L3.896,18.351C3.879,20.162 4.222,21.958 4.907,23.635L8.61,22.122ZM7.896,18.39C7.909,17.111 8.176,15.847 8.683,14.672L5.011,13.087C4.293,14.75 3.914,16.54 3.896,18.351L7.896,18.39ZM8.683,14.672C9.19,13.498 9.926,12.436 10.848,11.55L8.076,8.666C6.77,9.922 5.728,11.425 5.011,13.087L8.683,14.672ZM10.876,11.522L14.984,7.414L12.156,4.586L8.048,8.694L10.876,11.522ZM3.414,35.414L10.414,28.414L7.586,25.586L0.586,32.586L3.414,35.414ZM22.586,0.586L15.586,7.586L18.414,10.414L25.414,3.414L22.586,0.586ZM32.586,10.586L25.586,17.586L28.414,20.414L35.414,13.414L32.586,10.586Z" fill="#545454"/>
</g>
</svg>
