<svg width="48" height="56" viewBox="0 0 48 56" fill="none" xmlns="http://www.w3.org/2000/svg" xmlns:xlink="http://www.w3.org/1999/xlink">
<path d="M39.993,52.56C36.892,55.47 33.505,55.01 30.246,53.632C26.796,52.223 23.631,52.162 19.992,53.632C15.435,55.531 13.03,54.98 10.308,52.56C-5.136,37.153 -2.858,13.691 14.675,12.833C18.948,13.047 21.922,15.1 24.423,15.283C28.157,14.548 31.733,12.435 35.721,12.71C40.5,13.078 44.107,14.916 46.481,18.224C36.607,23.952 38.949,36.54 48,40.063C46.196,44.657 43.854,49.221 39.962,52.59L39.993,52.56ZM24.106,12.649C23.631,5.819 29.36,0.183 35.942,-0.368C36.86,7.534 28.537,13.415 24.106,12.649Z" fill="#545454"/>
</svg>
