<svg width="36" height="26" viewBox="0 0 36 26" fill="none" xmlns="http://www.w3.org/2000/svg" xmlns:xlink="http://www.w3.org/1999/xlink">
<path d="M5.4,11.143C7.386,11.143 9,9.477 9,7.429C9,5.38 7.386,3.714 5.4,3.714C3.414,3.714 1.8,5.38 1.8,7.429C1.8,9.477 3.414,11.143 5.4,11.143ZM30.6,11.143C32.586,11.143 34.2,9.477 34.2,7.429C34.2,5.38 32.586,3.714 30.6,3.714C28.614,3.714 27,5.38 27,7.429C27,9.477 28.614,11.143 30.6,11.143ZM32.4,13L28.8,13C27.81,13 26.916,13.412 26.263,14.079C28.53,15.362 30.139,17.678 30.487,20.429L34.2,20.429C35.196,20.429 36,19.599 36,18.571L36,16.714C36,14.666 34.386,13 32.4,13ZM18,13C21.482,13 24.3,10.092 24.3,6.5C24.3,2.908 21.482,0 18,0C14.518,0 11.7,2.908 11.7,6.5C11.7,10.092 14.518,13 18,13ZM22.32,14.857L21.853,14.857C20.683,15.438 19.384,15.786 18,15.786C16.616,15.786 15.322,15.438 14.147,14.857L13.68,14.857C10.102,14.857 7.2,17.852 7.2,21.543L7.2,23.214C7.2,24.752 8.409,26 9.9,26L26.1,26C27.591,26 28.8,24.752 28.8,23.214L28.8,21.543C28.8,17.852 25.897,14.857 22.32,14.857ZM9.737,14.079C9.084,13.412 8.19,13 7.2,13L3.6,13C1.614,13 0,14.666 0,16.714L0,18.571C0,19.599 0.804,20.429 1.8,20.429L5.507,20.429C5.861,17.678 7.47,15.362 9.737,14.079Z" fill="#545454"/>
</svg>
