<svg width="40" height="40" viewBox="0 0 40 40" fill="none" xmlns="http://www.w3.org/2000/svg" xmlns:xlink="http://www.w3.org/1999/xlink">
<path d="M32.231,29.377C30.411,32.397 28.111,31.437 25.951,30.157C23.791,28.877 21.751,27.337 20.451,29.157C19.031,30.717 20.131,33.217 20.691,35.417C21.251,37.637 21.291,39.557 17.751,39.977C14.951,39.597 15.111,37.277 15.571,34.817C16.031,32.357 16.751,29.757 14.951,28.837C13.511,27.877 12.511,29.537 11.251,31.177C9.951,32.797 8.471,34.377 6.031,33.217C3.831,31.397 4.671,30.337 5.831,28.977C6.991,27.617 8.491,25.797 7.631,22.597C7.271,21.297 5.471,21.597 3.691,21.557C1.951,21.517 0.191,21.157 0.011,18.557C-0.129,16.977 1.051,16.337 2.271,15.837C3.511,15.337 4.771,14.977 4.791,13.717C4.851,12.497 4.031,11.637 3.511,10.737C2.991,9.837 2.771,8.897 4.011,7.497C6.111,5.777 7.791,7.237 9.471,8.817C11.151,10.397 12.811,12.057 14.871,10.757C16.511,9.677 15.011,7.777 13.851,5.917C12.691,4.057 11.871,2.277 14.871,1.457C17.471,0.737 18.471,2.517 19.371,4.577C20.291,6.637 21.091,8.977 23.291,9.397C26.431,9.977 28.711,6.297 30.891,3.377C33.071,0.457 35.211,-1.723 37.951,1.877C40.951,5.657 38.091,7.417 34.751,8.977C31.411,10.437 27.571,11.717 28.491,14.537C29.031,16.177 30.791,15.277 32.651,14.657C34.491,14.037 36.471,13.697 37.431,16.517C38.451,19.497 36.031,20.177 33.311,20.457C30.591,20.737 27.551,20.617 27.351,21.977C27.131,23.397 28.951,23.977 30.531,24.817C32.111,25.677 33.451,26.817 32.231,29.377ZM36.951,33.977C35.051,33.977 34.071,32.497 34.071,30.977C34.071,29.457 35.031,27.977 36.951,27.977C38.951,27.977 39.951,29.457 39.951,30.977C39.951,32.497 38.951,33.977 36.951,33.977Z" fill="#888888"/>
</svg>
