<svg width="20" height="24" viewBox="0 0 20 24" fill="none" xmlns="http://www.w3.org/2000/svg" xmlns:xlink="http://www.w3.org/1999/xlink">
<path d="M16.25,8.061L16.25,5.698C16.25,2.389 13.5,-0.21 10,-0.21C6.5,-0.21 3.75,2.389 3.75,5.698L3.75,8.061C1.625,8.061 0,9.597 0,11.606L0,19.877C0,21.886 1.625,23.422 3.75,23.422L16.25,23.422C18.375,23.422 20,21.886 20,19.877L20,11.606C20,9.597 18.375,8.061 16.25,8.061ZM6.25,5.698C6.25,3.689 7.875,2.153 10,2.153C12.125,2.153 13.75,3.689 13.75,5.698L13.75,8.061L6.25,8.061L6.25,5.698Z" fill="#545454" fill-opacity="0.6"/>
</svg>
