<svg width="38" height="32" viewBox="0 0 38 32" fill="none" xmlns="http://www.w3.org/2000/svg" xmlns:xlink="http://www.w3.org/1999/xlink">
<path d="M36.034,0.608C35.664,-0.173 34.609,-0.205 34.167,0.533C32.121,3.901 28.46,6.001 24.276,6.001L18.998,6.001C12.004,6.001 6.33,11.375 6.33,17.999C6.33,18.437 6.383,18.855 6.429,19.28C10.639,16.424 16.715,14 25.332,14C25.913,14 26.388,14.45 26.388,14.999C26.388,15.549 25.913,15.999 25.332,15.999C8.745,15.999 1.712,25.629 0.155,29.248C-0.281,30.266 0.234,31.429 1.309,31.847C2.391,32.272 3.619,31.778 4.067,30.766C4.166,30.541 5.446,27.773 8.811,25.104C10.949,27.848 15.013,30.466 20.351,29.929C30.709,29.216 38,20.417 38,9.644C38,6.507 37.287,3.257 36.034,0.608Z" fill="#52A77A"/>
</svg>
