<svg width="60" height="60" viewBox="0 0 60 60" fill="none" xmlns="http://www.w3.org/2000/svg" xmlns:xlink="http://www.w3.org/1999/xlink">
<path d="M27.349,1.098C28.052,0.395 29.006,0 30,0C30.994,0 31.948,0.395 32.651,1.098L58.902,27.348C59.426,27.873 59.783,28.541 59.928,29.268C60.073,29.996 59.998,30.749 59.715,31.435C59.431,32.12 58.95,32.705 58.334,33.117C57.717,33.529 56.992,33.749 56.251,33.75L52.501,33.75L52.501,56.25C52.501,57.245 52.106,58.198 51.402,58.902C50.699,59.605 49.745,60 48.75,60L41.25,60C40.256,60 39.302,59.605 38.599,58.902C37.895,58.198 37.5,57.245 37.5,56.25L37.5,45C37.5,44.005 37.105,43.051 36.402,42.348C35.699,41.645 34.745,41.25 33.75,41.25L26.25,41.25C25.255,41.25 24.301,41.645 23.598,42.348C22.895,43.051 22.5,44.005 22.5,45L22.5,56.25C22.5,57.245 22.105,58.198 21.401,58.902C20.698,59.605 19.744,60 18.75,60L11.25,60C10.255,60 9.301,59.605 8.598,58.902C7.894,58.198 7.499,57.245 7.499,56.25L7.499,33.75L3.749,33.75C3.008,33.749 2.283,33.529 1.666,33.117C1.05,32.705 0.569,32.12 0.285,31.435C0.002,30.749 -0.073,29.996 0.072,29.268C0.217,28.541 0.574,27.873 1.098,27.348L27.349,1.098Z" clip-rule="evenodd" fill-rule="evenodd" fill="#CDCDD2"/>
</svg>
