<svg width="28" height="26" viewBox="0 0 28 26" fill="none" xmlns="http://www.w3.org/2000/svg" xmlns:xlink="http://www.w3.org/1999/xlink">
<path d="M20.222,17.331C22.254,17.331 23.984,18.537 24.624,20.219L26.444,20.219C26.857,20.219 27.253,20.372 27.544,20.642C27.836,20.913 28,21.281 28,21.664C28,22.047 27.836,22.414 27.544,22.685C27.253,22.956 26.857,23.108 26.444,23.108L24.624,23.108C24.303,23.954 23.707,24.686 22.919,25.204C22.13,25.722 21.188,26 20.222,26C19.256,26 18.314,25.722 17.526,25.204C16.737,24.686 16.141,23.954 15.82,23.108L1.556,23.108C1.143,23.108 0.747,22.956 0.456,22.685C0.164,22.414 0,22.047 0,21.664C0,21.281 0.164,20.913 0.456,20.642C0.747,20.372 1.143,20.219 1.556,20.219L15.82,20.219C16.142,19.374 16.738,18.643 17.527,18.126C18.315,17.608 19.257,17.331 20.222,17.331ZM7.778,8.665C8.694,8.665 9.59,8.916 10.354,9.385C11.118,9.855 11.716,10.523 12.074,11.306L12.178,11.554L26.444,11.554C26.841,11.554 27.222,11.695 27.511,11.948C27.799,12.201 27.972,12.546 27.996,12.914C28.019,13.281 27.89,13.643 27.636,13.925C27.381,14.207 27.02,14.389 26.626,14.432L26.444,14.442L12.18,14.442C11.866,15.266 11.292,15.983 10.532,16.498C9.772,17.013 8.863,17.303 7.922,17.33C6.982,17.357 6.054,17.119 5.262,16.648C4.47,16.177 3.849,15.495 3.481,14.691L3.376,14.442L1.556,14.442C1.159,14.442 0.778,14.301 0.489,14.048C0.201,13.796 0.028,13.45 0.004,13.083C-0.019,12.715 0.11,12.354 0.364,12.071C0.619,11.789 0.98,11.608 1.374,11.564L1.556,11.554L3.376,11.554C3.698,10.709 4.294,9.977 5.082,9.46C5.871,8.943 6.812,8.665 7.778,8.665ZM20.222,0C22.254,0 23.984,1.206 24.624,2.889L26.444,2.889C26.857,2.889 27.253,3.041 27.544,3.312C27.836,3.582 28,3.95 28,4.333C28,4.716 27.836,5.083 27.544,5.354C27.253,5.625 26.857,5.777 26.444,5.777L24.624,5.777C24.303,6.623 23.707,7.355 22.919,7.873C22.13,8.391 21.188,8.669 20.222,8.669C19.256,8.669 18.314,8.391 17.526,7.873C16.737,7.355 16.141,6.623 15.82,5.777L1.556,5.777C1.143,5.777 0.747,5.625 0.456,5.354C0.164,5.083 0,4.716 0,4.333C0,3.95 0.164,3.582 0.456,3.312C0.747,3.041 1.143,2.889 1.556,2.889L15.82,2.889C16.142,2.043 16.738,1.312 17.527,0.795C18.315,0.277 19.257,0 20.222,0Z" fill="#FFFFFF"/>
</svg>
