<svg width="24" height="14" viewBox="0 0 24 14" fill="none" xmlns="http://www.w3.org/2000/svg" xmlns:xlink="http://www.w3.org/1999/xlink">
<path d="M19.586,12.414C20.367,13.195 21.633,13.195 22.414,12.414C23.195,11.633 23.195,10.367 22.414,9.586L19.586,12.414ZM11,1L12.414,-0.414C11.633,-1.195 10.367,-1.195 9.586,-0.414L11,1ZM-0.414,9.586C-1.195,10.367 -1.195,11.633 -0.414,12.414C0.367,13.195 1.633,13.195 2.414,12.414L-0.414,9.586ZM22.414,9.586L12.414,-0.414L9.586,2.414L19.586,12.414L22.414,9.586ZM9.586,-0.414L-0.414,9.586L2.414,12.414L12.414,2.414L9.586,-0.414Z" transform="rotate(-180 11 6)" fill="#545454"/>
</svg>
