<svg width="88" height="88" viewBox="0 0 88 88" fill="none" xmlns="http://www.w3.org/2000/svg" xmlns:xlink="http://www.w3.org/1999/xlink">
<path d="M40.111,1.61C41.143,0.579 42.542,0 44,0C45.458,0 46.857,0.579 47.889,1.61L86.39,40.111C87.159,40.88 87.682,41.86 87.894,42.927C88.107,43.993 87.998,45.099 87.581,46.104C87.165,47.109 86.46,47.968 85.556,48.572C84.652,49.177 83.589,49.499 82.501,49.499L77.001,49.499L77.001,82.5C77.001,83.959 76.421,85.358 75.39,86.389C74.358,87.421 72.959,88 71.501,88L60.5,88C59.042,88 57.643,87.421 56.611,86.389C55.58,85.358 55,83.959 55,82.5L55,66C55,64.541 54.421,63.142 53.389,62.111C52.358,61.079 50.959,60.5 49.5,60.5L38.5,60.5C37.041,60.5 35.642,61.079 34.611,62.111C33.579,63.142 33,64.541 33,66L33,82.5C33,83.959 32.42,85.358 31.389,86.389C30.357,87.421 28.958,88 27.5,88L16.499,88C15.041,88 13.642,87.421 12.61,86.389C11.579,85.358 10.999,83.959 10.999,82.5L10.999,49.499L5.499,49.499C4.411,49.499 3.348,49.177 2.444,48.572C1.54,47.968 0.835,47.109 0.419,46.104C0.002,45.099 -0.107,43.993 0.106,42.927C0.318,41.86 0.841,40.88 1.61,40.111L40.111,1.61Z" clip-rule="evenodd" fill-rule="evenodd" fill="#52A77A"/>
</svg>
