<svg width="44" height="32" viewBox="0 0 44 32" fill="none" xmlns="http://www.w3.org/2000/svg" xmlns:xlink="http://www.w3.org/1999/xlink">
<g opacity="0.7">
<path d="M11,32C7.96,32 5.367,30.953 3.22,28.86C1.073,26.753 0,24.187 0,21.16C0,18.56 0.78,16.24 2.34,14.2C3.913,12.16 5.967,10.86 8.5,10.3C9.34,7.233 11.007,4.753 13.5,2.86C16.007,0.953 18.84,0 22,0C25.907,0 29.213,1.36 31.92,4.08C34.64,6.787 36,10.093 36,14C38.307,14.267 40.213,15.267 41.72,17C43.24,18.707 44,20.707 44,23C44,25.507 43.127,27.633 41.38,29.38C39.633,31.127 37.507,32 35,32L11,32Z" fill="#545454"/>
</g>
</svg>
