<svg width="56" height="58" viewBox="0 0 56 58" fill="none" xmlns="http://www.w3.org/2000/svg" xmlns:xlink="http://www.w3.org/1999/xlink">
<path d="M28,30.526C27.119,30.526 26.379,30.233 25.782,29.647C25.184,29.061 24.887,28.337 24.889,27.474L24.889,3.053C24.889,2.188 25.188,1.462 25.785,0.876C26.382,0.29 27.121,-0.002 28,0C28.881,0 29.621,0.293 30.218,0.879C30.816,1.465 31.113,2.19 31.111,3.053L31.111,27.474C31.111,28.339 30.812,29.064 30.215,29.65C29.618,30.236 28.879,30.528 28,30.526ZM28,58C24.111,58 20.468,57.274 17.071,55.823C13.673,54.372 10.718,52.415 8.204,49.95C5.69,47.482 3.695,44.582 2.218,41.25C0.741,37.919 0.002,34.344 0,30.526C0,27.423 0.519,24.408 1.556,21.481C2.593,18.555 4.096,15.872 6.067,13.432C6.637,12.719 7.363,12.375 8.244,12.4C9.126,12.424 9.904,12.768 10.578,13.432C11.148,13.991 11.407,14.678 11.356,15.492C11.304,16.306 11.019,17.069 10.5,17.782C9.1,19.613 8.037,21.623 7.311,23.811C6.585,25.998 6.222,28.237 6.222,30.526C6.222,36.479 8.336,41.529 12.563,45.677C16.79,49.824 21.935,51.897 28,51.895C34.067,51.895 39.213,49.821 43.44,45.673C47.667,41.526 49.78,36.477 49.778,30.526C49.778,28.186 49.427,25.909 48.726,23.695C48.025,21.48 46.924,19.458 45.422,17.629C44.904,16.968 44.619,16.242 44.567,15.452C44.515,14.663 44.774,13.989 45.344,13.432C45.967,12.821 46.719,12.503 47.6,12.476C48.481,12.45 49.207,12.768 49.778,13.432C51.8,15.874 53.343,18.545 54.407,21.445C55.471,24.345 56.002,27.372 56,30.526C56,34.342 55.261,37.917 53.782,41.25C52.303,44.584 50.308,47.484 47.796,49.95C45.28,52.417 42.325,54.376 38.929,55.827C35.534,57.278 31.891,58.002 28,58Z" fill="#FF1F00"/>
</svg>
