<svg width="76" height="48" viewBox="0 0 76 48" fill="none" xmlns="http://www.w3.org/2000/svg" xmlns:xlink="http://www.w3.org/1999/xlink">
<path d="M0.29,27.744C1.17,33.39 4.011,38.532 8.3,42.246C12.59,45.959 18.047,48 23.69,48L52.309,48C58.592,48 64.618,45.471 69.061,40.971C73.504,36.47 76,30.365 76,24C76,17.635 73.504,11.53 69.061,7.029C64.618,2.529 58.592,0 52.309,0L23.69,0C20.266,0 16.883,0.752 13.774,2.204C10.665,3.656 7.903,5.773 5.679,8.41C3.455,11.047 1.822,14.14 0.892,17.478C-0.039,20.816 -0.244,24.318 0.29,27.744ZM52.578,36.923C54.362,36.917 56.125,36.531 57.753,35.791C59.38,35.051 60.836,33.973 62.026,32.626C63.217,31.28 64.114,29.696 64.662,27.976C65.209,26.256 65.394,24.438 65.204,22.641C64.877,19.476 63.407,16.545 61.077,14.41C58.747,12.276 55.72,11.089 52.578,11.077C50.794,11.083 49.032,11.469 47.404,12.209C45.777,12.949 44.321,14.027 43.131,15.374C41.94,16.72 41.043,18.304 40.495,20.024C39.948,21.744 39.763,23.562 39.953,25.359C40.28,28.524 41.75,31.455 44.08,33.59C46.41,35.724 49.437,36.911 52.578,36.923Z" clip-rule="evenodd" fill-rule="evenodd" transform="rotate(180 38 24)" fill="#2AB66C"/>
</svg>
