<svg width="32" height="20" viewBox="0 0 32 20" fill="none" xmlns="http://www.w3.org/2000/svg" xmlns:xlink="http://www.w3.org/1999/xlink">
<path d="M27.586,18.414C28.367,19.195 29.633,19.195 30.414,18.414C31.195,17.633 31.195,16.367 30.414,15.586L27.586,18.414ZM15,3L16.414,1.586C16.039,1.211 15.53,1 15,1C14.47,1 13.961,1.211 13.586,1.586L15,3ZM-0.414,15.586C-1.195,16.367 -1.195,17.633 -0.414,18.414C0.367,19.195 1.633,19.195 2.414,18.414L-0.414,15.586ZM30.414,15.586L16.414,1.586L13.586,4.414L27.586,18.414L30.414,15.586ZM13.586,1.586L-0.414,15.586L2.414,18.414L16.414,4.414L13.586,1.586Z" transform="rotate(-180 15 10)" fill="#333333"/>
</svg>
