<svg width="36" height="20" viewBox="0 0 36 20" fill="none" xmlns="http://www.w3.org/2000/svg" xmlns:xlink="http://www.w3.org/1999/xlink">
<path d="M32.586,19.414C33.367,20.195 34.633,20.195 35.414,19.414C36.195,18.633 36.195,17.367 35.414,16.586L32.586,19.414ZM18,2L19.414,0.586C18.633,-0.195 17.367,-0.195 16.586,0.586L18,2ZM0.586,16.586C-0.195,17.367 -0.195,18.633 0.586,19.414C1.367,20.195 2.633,20.195 3.414,19.414L0.586,16.586ZM35.414,16.586L19.414,0.586L16.586,3.414L32.586,19.414L35.414,16.586ZM16.586,0.586L0.586,16.586L3.414,19.414L19.414,3.414L16.586,0.586Z" transform="rotate(-180 18 10)" fill="#545454"/>
</svg>
